<?xml version="1.0" standalone="no"?>
<!DOCTYPE svg PUBLIC "-//W3C//DTD SVG 20010904//EN"
 "http://www.w3.org/TR/2001/REC-SVG-20010904/DTD/svg10.dtd">
<svg version="1.0" xmlns="http://www.w3.org/2000/svg"
 width="493.000000pt" height="493.000000pt" viewBox="0 0 493.000000 493.000000"
 preserveAspectRatio="xMidYMid meet">

<g transform="translate(0.000000,493.000000) scale(0.100000,-0.100000)"
fill="#000000" stroke="none">
<path d="M2255 4904 c-629 -66 -1147 -310 -1560 -735 -266 -274 -437 -551
-562 -909 -92 -263 -128 -482 -128 -785 0 -303 36 -522 128 -785 125 -358 296
-635 562 -909 379 -390 856 -632 1415 -718 160 -25 520 -25 680 0 709 109
1307 484 1697 1062 203 301 332 636 390 1015 24 160 24 510 0 670 -69 444
-236 834 -506 1175 -84 107 -265 288 -376 378 -343 277 -748 454 -1195 522
-101 16 -459 28 -545 19z m549 -324 c478 -82 883 -297 1210 -641 300 -315 489
-700 562 -1144 25 -153 25 -477 0 -630 -73 -444 -262 -829 -562 -1144 -332
-349 -747 -566 -1239 -647 -154 -26 -486 -26 -640 0 -492 81 -907 298 -1239
647 -300 315 -489 700 -562 1144 -25 153 -25 477 0 630 59 360 189 669 399
952 357 480 905 789 1510 853 133 14 426 4 561 -20z"/>
<path d="M2195 4464 c-1008 -135 -1755 -980 -1755 -1984 0 -1104 903 -2000
2015 -2000 1112 0 2015 897 2015 2000 0 1110 -910 2007 -2028 1999 -81 -1
-192 -7 -247 -15z m640 -334 c4 -6 -30 -71 -75 -146 -90 -149 -140 -264 -140
-318 0 -44 -29 -65 -54 -40 -23 22 -20 64 10 128 29 63 26 80 -9 49 -35 -33
-83 -53 -155 -67 -109 -21 -162 8 -162 88 0 46 26 93 62 112 32 18 93 17 112
-1 33 -33 -27 -125 -81 -125 -26 0 -31 -15 -7 -24 51 -19 165 17 225 71 22 20
46 33 56 31 14 -3 32 21 77 102 83 149 84 150 111 150 13 0 27 -5 30 -10z
m-692 -82 c8 -32 12 -36 27 -28 31 16 193 41 203 31 20 -20 -3 -40 -60 -50
-32 -6 -83 -17 -113 -24 l-55 -13 -7 -59 c-8 -70 -3 -176 14 -258 10 -51 9
-60 -6 -75 -16 -16 -18 -16 -31 2 -8 10 -17 37 -20 60 -3 22 -7 55 -9 71 -2
17 -5 41 -5 55 -1 21 -6 17 -31 -27 -48 -83 -115 -116 -187 -90 -20 7 -24 4
-34 -39 -22 -86 -84 -133 -138 -104 -41 22 -68 151 -35 164 26 10 44 -13 44
-53 0 -49 22 -80 47 -65 33 19 53 75 53 145 0 52 4 68 16 73 27 10 32 7 55
-34 18 -33 28 -40 52 -40 36 0 89 52 103 101 7 24 16 35 32 37 20 3 22 9 22
64 0 53 -2 59 -17 53 -91 -37 -179 -62 -191 -52 -22 17 5 34 113 71 99 33 100
34 103 67 4 50 10 61 29 57 11 -2 21 -18 26 -40z m874 -173 c13 -9 27 -34 34
-57 11 -41 10 -42 -28 -74 l-38 -32 29 -8 c16 -4 58 -2 93 5 65 12 83 9 83
-12 0 -8 23 -12 68 -13 99 -2 166 -40 191 -107 10 -24 8 -31 -15 -54 -24 -24
-30 -25 -86 -19 l-60 7 21 -30 c42 -59 104 -89 189 -93 30 -1 46 -7 53 -19 6
-12 5 -20 -3 -25 -7 -5 -4 -10 10 -15 30 -11 28 -47 -3 -61 -14 -6 -25 -15
-25 -19 0 -11 67 -54 100 -64 14 -4 32 -13 40 -20 8 -7 29 -20 45 -28 66 -35
135 -120 135 -166 0 -15 -12 -38 -29 -54 -24 -24 -33 -27 -49 -18 -26 14 -62
14 -62 1 0 -14 89 -98 111 -105 21 -7 33 -35 20 -48 -19 -19 -64 5 -127 66
-56 55 -64 67 -64 100 0 24 5 40 15 43 11 5 4 18 -30 56 -25 28 -45 60 -46 72
-1 11 -2 29 -3 39 0 10 -19 31 -41 46 -22 15 -49 43 -60 63 l-20 37 22 30 22
29 -51 7 c-67 9 -109 28 -153 66 -46 41 -62 73 -70 137 -7 65 8 74 71 43 69
-35 109 -15 43 22 -51 28 -152 19 -257 -23 -60 -24 -86 -30 -94 -22 -18 18 0
42 49 65 l48 22 -62 5 c-68 5 -94 22 -96 62 -2 23 -5 24 -71 24 -62 -1 -70 1
-88 25 -36 48 6 101 93 118 70 14 123 12 146 -4z m-1658 -231 c38 -8 92 -59
85 -79 -12 -29 -43 -28 -80 4 -19 17 -38 31 -43 31 -44 0 -66 -145 -36 -245
37 -130 107 -211 160 -187 34 16 81 82 128 182 42 90 52 101 74 93 20 -8 11
-38 -42 -148 -44 -92 -95 -154 -148 -182 -66 -34 -150 28 -210 156 -29 60 -32
75 -32 166 0 113 14 165 52 195 28 21 42 24 92 14z m1128 -179 c29 -30 53 -59
53 -64 0 -4 -41 -8 -90 -7 -90 1 -91 1 -85 24 10 39 -11 52 -81 52 -47 0 -64
4 -64 14 0 20 56 34 139 35 l75 1 53 -55z m471 -99 c100 -93 148 -144 145
-154 -8 -20 -154 -134 -215 -167 l-51 -28 -53 55 c-57 59 -74 102 -74 183 0
87 58 259 86 253 6 -2 79 -66 162 -142z m-258 44 c-46 -136 -36 -257 27 -333
41 -49 90 -87 113 -87 8 0 51 20 94 45 44 25 81 43 84 41 2 -3 -10 -29 -27
-59 -17 -30 -31 -64 -31 -76 0 -14 35 -59 94 -121 143 -151 211 -303 223 -499
6 -94 -16 -247 -43 -310 -99 -226 -198 -340 -384 -440 -237 -127 -528 -114
-765 34 -157 98 -281 236 -347 385 -75 170 -84 325 -32 501 l26 86 -26 49 -26
49 2 -53 c2 -28 0 -52 -4 -52 -13 0 -55 65 -74 115 -23 60 -26 219 -5 278 13
40 20 44 39 25 21 -21 25 1 8 41 -23 50 -18 73 19 82 17 4 106 14 198 22 192
16 200 20 227 105 14 43 20 50 80 79 83 41 180 56 319 49 l108 -5 58 59 c32
33 60 58 62 56 2 -2 -5 -32 -17 -66z m1005 -60 c33 -36 -9 -78 -45 -45 -23 21
-25 36 -8 53 17 17 32 15 53 -8z m-2047 -1677 c15 -9 46 -33 68 -53 23 -19 61
-50 84 -69 53 -42 80 -86 81 -131 l1 -35 14 33 c8 17 17 32 22 32 4 0 68 -23
142 -51 74 -28 151 -56 170 -61 19 -6 41 -15 49 -21 15 -12 22 -13 318 -17
l183 -2 10 -36 c26 -96 9 -120 -85 -124 l-69 -3 3 -182 3 -183 -91 0 c-50 0
-92 1 -92 3 -1 1 -5 83 -8 182 l-6 180 -60 3 c-32 2 -65 8 -72 14 -7 6 -13 28
-13 49 0 46 -14 51 -29 9 -5 -16 -17 -30 -25 -30 -8 0 -54 16 -102 35 -49 20
-94 33 -101 31 -32 -12 -8 -36 74 -72 109 -49 115 -55 101 -97 -20 -59 -25
-60 -113 -21 -100 45 -109 46 -113 13 -3 -24 5 -29 98 -73 111 -51 107 -44 75
-122 l-13 -32 -54 18 c-29 10 -73 29 -98 43 -25 14 -65 31 -90 37 -50 13 -115
44 -125 59 -5 10 8 62 60 234 15 49 25 90 22 93 -2 3 -18 -8 -34 -25 -36 -35
-99 -56 -145 -47 -19 3 -61 22 -93 41 -32 20 -59 34 -59 33 -14 -28 -61 -88
-68 -88 -20 0 -128 85 -128 101 0 3 30 45 68 91 37 47 95 124 129 171 34 48
67 87 73 87 6 0 23 -8 38 -17z m1526 -288 c10 -80 8 -83 -89 -115 -65 -22
-105 -51 -105 -76 0 -25 29 -28 109 -10 118 25 157 22 192 -15 58 -62 59 -164
2 -221 -36 -36 -203 -109 -264 -115 l-45 -5 -17 52 c-26 81 -25 84 42 98 112
23 208 86 186 122 -9 15 -86 12 -152 -5 -90 -24 -145 -20 -176 11 -51 51 -44
144 16 205 19 19 59 49 91 68 59 35 174 82 191 77 6 -1 14 -33 19 -71z"/>
<path d="M2338 3889 c-10 -5 -18 -16 -18 -23 0 -24 30 -26 51 -5 31 31 7 52
-33 28z"/>
<path d="M2905 3830 c-49 -7 -88 -27 -82 -43 5 -15 86 -21 119 -8 30 11 44 47
19 53 -9 2 -34 1 -56 -2z"/>
<path d="M3651 3090 c-17 -10 -4 -34 42 -78 26 -25 40 -32 56 -27 30 9 26 26
-16 67 -43 40 -64 50 -82 38z"/>
<path d="M3005 2768 c3 -16 7 -38 10 -50 7 -39 33 -228 45 -328 16 -137 68
-326 101 -364 11 -13 28 34 46 129 40 207 -22 433 -163 590 -40 45 -44 47 -39
23z"/>
<path d="M1757 2465 c-15 -48 -36 -194 -31 -220 18 -111 26 -142 53 -205 35
-82 106 -192 155 -239 l33 -32 18 53 c9 29 50 118 91 198 77 149 103 235 104
331 0 63 -33 113 -79 117 -29 3 -40 -3 -87 -52 -30 -31 -60 -56 -68 -56 -7 0
-21 9 -31 20 -10 11 -22 20 -27 20 -5 0 -6 -9 -3 -20 3 -11 2 -20 -2 -20 -12
0 -73 59 -99 95 -20 28 -22 28 -27 10z"/>
<path d="M1651 1476 l-32 -45 42 -31 c46 -33 52 -35 80 -20 32 18 24 61 -20
104 l-39 38 -31 -46z"/>
</g>
</svg>
